<svg width="297" height="296" viewBox="0 0 297 296" fill="none" xmlns="http://www.w3.org/2000/svg">
<rect width="296" height="296" transform="matrix(-1 0 0 1 296.98 0)" fill="#50AF95"/>
<path fill-rule="evenodd" clip-rule="evenodd" d="M154.273 149.8C153.977 149.822 152.45 149.913 149.043 149.913C146.333 149.913 144.409 149.832 143.734 149.8C133.261 149.339 125.444 147.516 125.444 145.333C125.444 143.15 133.261 141.33 143.734 140.862V147.984C144.418 148.033 146.379 148.149 149.089 148.149C152.341 148.149 153.97 148.014 154.263 147.986V140.867C164.713 141.332 172.513 143.155 172.513 145.333C172.513 147.511 164.716 149.334 154.263 149.797L154.273 149.8ZM154.273 140.13V133.757H168.857V124.038H129.149V133.757H143.731V140.128C131.879 140.672 122.966 143.02 122.966 145.833C122.966 148.647 131.879 150.992 143.731 151.539V171.962H154.27V151.532C166.095 150.987 174.994 148.642 174.994 145.831C174.994 143.02 166.103 140.675 154.27 140.128L154.273 140.13Z" fill="white"/>
</svg>
