<svg width="148" height="148" viewBox="0 0 148 148" fill="none" xmlns="http://www.w3.org/2000/svg">
<rect width="148" height="148" fill="#111111"/>
<path fill-rule="evenodd" clip-rule="evenodd" d="M71.3372 60C64.8796 61.2664 60 67.0568 60 74C60 80.9432 64.8796 86.7336 71.3372 88V86.6638C65.5914 85.4148 61.2864 80.2183 61.2864 74C61.2864 67.7817 65.5914 62.5852 71.3372 61.3362V60ZM76.6885 61.345V60.0087C83.1375 61.2838 88 67.0655 88 74C88 80.9345 83.1375 86.7162 76.6885 87.9913V86.655C82.4172 85.3974 86.7136 80.2096 86.7136 74C86.7136 67.7904 82.4172 62.6026 76.6885 61.345Z" fill="white"/>
<path d="M75.9409 73.5294C76.9934 73.7329 77.8017 74.123 78.3827 74.6911C78.9637 75.2508 79.25 75.9715 79.25 76.8449V78.227C79.25 79.2785 78.8711 80.1264 78.1217 80.7708C77.3723 81.4068 76.3787 81.7205 75.1578 81.7205H74.7368V83.9167H73.2885V81.7205H72.8422C72.0339 81.7205 71.3266 81.5425 70.7035 81.1779C70.0888 80.8048 69.6004 80.2875 69.2552 79.6261C68.9184 78.9478 68.75 78.1761 68.75 77.2943H70.1983C70.1983 78.1846 70.4425 78.9139 70.9224 79.4735C71.4192 80.0162 72.076 80.296 72.8759 80.296H75.1157C75.9072 80.296 76.5471 80.1095 77.0355 79.7364C77.5154 79.3463 77.7596 78.846 77.7596 78.227V76.8449C77.7596 76.3531 77.5744 75.9376 77.2123 75.5899C76.8587 75.2423 76.3787 75.0218 75.764 74.9201L72.1349 74.2756C71.1161 74.0891 70.3162 73.699 69.752 73.1139C69.1879 72.5204 68.9016 71.7827 68.9016 70.8923V69.7307C68.9016 68.6792 69.2636 67.8482 69.9878 67.2292C70.7287 66.5933 71.7055 66.2795 72.9096 66.2795H73.2717V64.0834H74.7199V66.2795H75.183C76.3282 66.2795 77.246 66.6526 77.9449 67.3988C78.6437 68.1281 78.9974 69.1032 78.9974 70.3073H77.5491C77.5491 69.5187 77.3302 68.8827 76.9008 68.4079C76.4713 67.933 75.8988 67.6956 75.183 67.6956H72.9012C72.1349 67.6956 71.5202 67.8821 71.0656 68.2552C70.6109 68.6114 70.3835 69.1032 70.3835 69.7222V70.8839C70.3835 71.3841 70.5519 71.8081 70.8887 72.1558C71.2424 72.5034 71.7139 72.7324 72.3202 72.8426L75.9409 73.5294Z" fill="white"/>
</svg>
