<svg width="148" height="148" viewBox="0 0 148 148" fill="none" xmlns="http://www.w3.org/2000/svg">
<rect width="148" height="148" fill="#F8F8F8"/>
<g clip-path="url(#clip0_1793_20187)">
<path d="M74 88C81.732 88 88 81.732 88 74C88 66.268 81.732 60 74 60C66.268 60 60 66.268 60 74C60 81.732 66.268 88 74 88Z" fill="#28D358"/>
<path d="M69.3433 72.3834C69.3433 73.4688 70.2232 74.3487 71.3086 74.3487C72.3941 74.3487 73.274 73.4688 73.274 72.3834C73.274 71.2979 72.3941 70.418 71.3086 70.418C70.2232 70.418 69.3433 71.2979 69.3433 72.3834Z" fill="white"/>
<path d="M74.7275 72.3834C74.7275 73.4688 75.6074 74.3487 76.6929 74.3487C77.7783 74.3487 78.6582 73.4688 78.6582 72.3834C78.6582 71.2979 77.7783 70.418 76.6929 70.418C75.6074 70.418 74.7275 71.2979 74.7275 72.3834Z" fill="white"/>
<path fill-rule="evenodd" clip-rule="evenodd" d="M80.9092 86.1791V80.8855C79.3842 82.9376 77.098 84.2049 73.9989 84.2049C68.4495 84.2049 63.9565 79.6682 63.9565 74.0808C63.9565 68.4934 68.4495 63.9567 73.9989 63.9567C79.016 63.9567 83.2914 67.6677 84.0371 72.5205L84.099 72.9236H80.7767L80.7188 72.6448C80.0688 69.5141 77.3297 67.2349 73.9989 67.2349C70.178 67.2349 67.1323 70.2312 67.1323 74.0808C67.1323 77.9267 70.1743 80.869 73.9989 80.869C77.4572 80.869 80.2086 78.4616 80.7139 75.1535L80.7593 74.8563H84.0395V83.7574C83.1189 84.7045 82.0654 85.5217 80.9092 86.1791Z" fill="white"/>
</g>
<defs>
<clipPath id="clip0_1793_20187">
<rect width="28" height="28" fill="white" transform="translate(60 60)"/>
</clipPath>
</defs>
</svg>
