<svg width="148" height="148" viewBox="0 0 148 148" fill="none" xmlns="http://www.w3.org/2000/svg">
<rect width="148" height="148" fill="#111111"/>
<g clip-path="url(#clip0_1793_20153)">
<path d="M63.593 79.1953C63.6836 79.3821 63.7812 79.5654 63.8855 79.7449C64.0359 80.0074 64.1098 80.1742 64.0879 80.2098C64.0715 80.2426 63.1473 81.2297 62.0344 82.4082C60.9215 83.5867 60.0109 84.5547 60 84.5793C61.1186 85.7051 62.2553 86.8126 63.4098 87.9016L63.5273 88L65.291 86.1352L67.309 83.9969L67.566 83.7316L67.8094 83.8875C68.1461 84.1049 68.4948 84.303 68.8539 84.4809C69.0754 83.3187 69.4746 82.184 69.9586 81.082L69.7891 81C68.3207 80.2398 67.4184 78.6484 66.8824 76.9641C66.4792 77.1212 66.0888 77.3096 65.7148 77.5273C64.9355 78.0551 64.3422 78.6758 63.593 79.1953ZM69.9531 65.5234C69.7398 65.2008 69.5074 64.8918 69.2777 64.5801C68.7686 64.4544 68.3167 64.1605 67.9953 63.7461L67.7219 63.9156L67.4102 63.6066C66.8502 63.0618 66.2879 62.5195 65.723 61.9797C64.9684 61.2523 64.1973 60.5113 64.0141 60.3281L63.6805 60L62.0125 61.7719C61.0965 62.7453 60.3418 63.5602 60.3336 63.5766C60.3254 63.593 61.1512 64.416 62.1656 65.3922L64.1262 67.2871L64.2437 67.3965L64.0332 67.7465C63.9566 67.8741 63.8837 68.0035 63.8145 68.1348C64.8809 68.8375 65.9746 69.4938 67.0902 70.15C67.8121 68.7938 69.1793 67.6234 70.7324 66.866C70.5591 66.6069 70.3813 66.3507 70.1992 66.0977C70.0625 65.9062 70.0625 65.7148 69.9531 65.5234ZM84.068 67.8148L83.923 67.5605L85.8836 65.4824C86.9609 64.3449 87.8359 63.3961 87.8277 63.377C87.8031 63.3059 84.366 60.0191 84.3223 60.0191C84.2949 60.0191 83.4254 60.9105 82.4 62.0016C81.3691 63.0898 80.5133 63.9895 80.4941 63.9977C80.475 64.0059 80.3848 63.9566 80.2863 63.8883C80.0922 63.757 79.116 64.1891 78.4816 64.3449C78.1262 65.1379 77.8172 65.95 77.5027 66.7539C77.8447 66.9318 78.1737 67.1337 78.4871 67.3582C78.9957 67.7219 80.207 68.6762 80.5652 69.1902C80.6527 69.316 80.7348 69.4473 80.8141 69.5812C81.9543 69.1 83.1191 68.6625 84.2594 68.1648C84.191 68.0336 84.1281 67.916 84.0707 67.8176L84.068 67.8148ZM84.2895 80.784L83.8246 80.3355L84.0352 79.9801C84.1172 79.8434 84.1965 79.7039 84.273 79.5617C83.2996 78.7086 82.3863 77.8609 81.3418 77.0516C80.9645 78.1863 80.3848 79.1953 79.6055 79.9336C79.198 80.3164 78.6977 80.6445 78.1316 80.9098L78.1836 81.1641C78.4023 82.2031 79.0039 82.9961 79.4414 83.9258C79.4962 84.0405 79.542 84.1594 79.5781 84.2812C79.7203 84.2029 79.8598 84.1227 79.9965 84.0406L80.352 83.8219L80.7266 84.1992C82.0187 85.4575 83.3176 86.709 84.623 87.9535C84.6586 87.9645 88.0055 84.4207 88 84.3797C87.9973 84.3578 85.6949 82.1266 84.2895 80.7867V80.784Z" fill="#F8FAFC"/>
<path d="M74.0135 85.982C71.2521 85.9809 68.576 85.0251 66.4386 83.2766C64.3013 81.5282 62.8342 79.0946 62.2858 76.3881C61.7374 73.6817 62.1416 70.869 63.4298 68.4265C64.7179 65.9839 66.8109 64.0619 69.3541 62.9859C72.2788 61.7502 75.5747 61.7269 78.5166 62.9212C81.4585 64.1155 83.8055 66.4295 85.0412 69.3543C86.2769 72.279 86.3002 75.5749 85.1059 78.5168C83.9116 81.4587 81.5976 83.8056 78.6728 85.0414C77.1988 85.6652 75.6141 85.9852 74.0135 85.982ZM74.0135 66.732C69.9994 66.732 66.7318 69.9996 66.7318 74.0137C66.7318 78.0277 69.9994 81.2953 74.0135 81.2953C78.0275 81.2953 81.2951 78.0277 81.2951 74.0137C81.2951 69.9996 78.0275 66.732 74.0135 66.732Z" fill="#F8FAFC"/>
</g>
<defs>
<clipPath id="clip0_1793_20153">
<rect width="28" height="28" fill="white" transform="translate(60 60)"/>
</clipPath>
</defs>
</svg>
