<svg width="148" height="148" viewBox="0 0 148 148" fill="none" xmlns="http://www.w3.org/2000/svg">
<rect width="148" height="148" fill="#255AF6"/>
<rect x="59" y="56.9231" width="30" height="34.1538" rx="15" fill="#2E4D40"/>
<rect x="62.7189" y="61.0749" width="22.5619" height="25.8503" rx="11.2809" stroke="#E6F9E8" stroke-width="1.18781"/>
<path d="M81.2172 65.1147V64.1806L76.4657 66.1315C76.7164 66.0285 76.8835 65.7579 76.8835 65.4561V63.1833C76.8835 63.1499 76.8497 63.1272 76.8188 63.1399L71.1683 65.4655C71.1331 65.4799 71.1102 65.5142 71.1102 65.5522V67.995C71.1102 68.1962 70.9991 68.3771 70.831 68.4453L68.0236 69.5986C67.28 69.9052 66.7808 70.7124 66.7808 71.6082C66.7808 72.4358 67.2092 73.1975 67.8734 73.546L76.1061 77.8838C76.2986 77.9856 76.4234 78.2059 76.4234 78.4455V78.9964L66.7808 82.9713V83.9258L71.528 81.9677C71.2773 82.0707 71.1102 82.3413 71.1102 82.6431V84.9231C71.1102 84.9565 71.1441 84.9792 71.1749 84.9665L76.8255 82.6409C76.8606 82.6264 76.8835 82.5922 76.8835 82.5542V80.0958C76.8835 79.8946 76.9946 79.7149 77.1617 79.6455L79.9775 78.485C80.719 78.1772 81.2172 77.3712 81.2172 76.4778V76.4107C81.2172 75.5831 80.7888 74.8227 80.1256 74.473L71.8306 70.0956C71.638 69.9938 71.5132 69.7735 71.5132 69.534V69.11L81.2172 65.1147Z" fill="#E6F9E8"/>
<circle cx="73.9998" cy="74" r="17.0769" fill="#255AF6"/>
<path fill-rule="evenodd" clip-rule="evenodd" d="M66.0308 57L69.5625 57.9079V82.9916C76.3668 82.1043 79.9349 78.1209 80.6319 70.6604L80.6521 70.4333L73.0469 68.4347V64.9514L84.2449 67.894L84.2461 69.6056L84.2449 69.6582C84.2291 70.2382 84.1678 70.7995 84.1072 71.3412C83.2051 79.3959 79.1958 83.3575 74.5687 85.1711C71.6133 86.1753 68.7673 86.6501 66.0308 86.5958V57ZM73.0429 58.7934L81.3077 60.916V64.4358L73.0429 62.1952V58.7934Z" fill="white"/>
</svg>
