<svg width="148" height="148" viewBox="0 0 148 148" fill="none" xmlns="http://www.w3.org/2000/svg">
<rect width="148" height="148" fill="#313131"/>
<path fill-rule="evenodd" clip-rule="evenodd" d="M74.0359 73.9208C78.4698 73.9208 82.1541 73.2053 83.0752 72.2446C82.304 71.4269 79.5408 70.7933 76.0065 70.6297V72.6534C75.3854 72.6943 74.7213 72.6943 74.0359 72.6943C73.3504 72.6943 72.7078 72.6739 72.0652 72.633V70.6297C68.5309 70.8136 65.7677 71.4474 64.9966 72.2446C65.8962 73.2053 69.6019 73.9208 74.0359 73.9208ZM81.897 64.4154V67.1955H75.9851V69.117C80.1405 69.3214 83.2465 70.1595 83.2679 71.1816V73.2871C83.2465 74.3092 80.1405 75.1473 75.9851 75.3517V80.0738H72.0652V75.3722C67.9097 75.1677 64.8038 74.3296 64.7824 73.3076V71.1816C64.8038 70.1595 67.9097 69.3214 72.0652 69.117V67.1955H66.1533V64.4154H81.897ZM63.8399 60H84.5745C85.0672 60 85.517 60.2453 85.7741 60.6541L91.8145 70.548C92.1358 71.0589 92.0287 71.7131 91.5789 72.1219L74.9569 87.6168C74.4215 88.1277 73.5432 88.1277 73.0077 87.6168L56.4072 72.1424C55.9573 71.7131 55.8717 71.0589 56.193 70.5275L62.6618 60.6133C62.9189 60.2453 63.3687 60 63.8399 60Z" fill="#D3B25B"/>
</svg>
